<?xml version="1.0" standalone="no"?>
<svg xmlns:xlink="http://www.w3.org/1999/xlink" xmlns="http://www.w3.org/2000/svg" id="graph" width="700" height="500"><title>Random 50 Nodes</title><circle/><circle/><circle/><circle/><circle class="node" r="5" style="stroke: rgb(0, 0, 0); fill: rgb(0, 0, 255);" cx="284" cy="425"><title>4
x= 284, y= 425</title></circle><circle class="node" r="8" style="stroke: rgb(0, 0, 0); fill: rgb(255, 0, 0);" cx="356.5" cy="390"><title>5
x= 356.5, y= 390</title></circle><circle/><circle/><circle/><circle/><circle class="node" r="6" style="stroke: rgb(0, 0, 0); fill: rgb(0, 128, 0);" cx="6" cy="233"><title>10
x= 6, y= 233</title></circle><circle class="node" r="9" style="stroke: rgb(0, 0, 0); fill: rgb(255, 0, 0);" cx="67.5" cy="320"><title>11
x= 67.5, y= 320</title></circle><circle/><circle class="node" r="8.5" style="stroke: rgb(0, 0, 0); fill: rgb(255, 0, 0);" cx="227.5" cy="330"><title>13
x= 227.5, y= 330</title></circle><circle class="node" r="7" style="stroke: rgb(0, 0, 0); fill: rgb(255, 0, 0);" cx="286" cy="306"><title>14
x= 286, y= 306</title></circle><circle/><circle class="node" r="8.5" style="stroke: rgb(0, 0, 0); fill: rgb(0, 128, 0);" cx="411" cy="300"><title>16
x= 411, y= 300</title></circle><circle/><circle class="node" r="8" style="stroke: rgb(0, 0, 0); fill: rgb(255, 0, 0);" cx="551" cy="309"><title>18
x= 551, y= 309</title></circle><circle class="node" r="3" style="stroke: rgb(0, 0, 0); fill: rgb(0, 0, 255);" cx="601.5" cy="328"><title>19
x= 601.5, y= 328</title></circle><circle class="node" r="8.5" style="stroke: rgb(0, 0, 0); fill: rgb(255, 0, 0);" cx="33" cy="208"><title>20
x= 33, y= 208</title></circle><circle class="node" r="4" style="stroke: rgb(0, 0, 0); fill: rgb(0, 0, 255);" cx="104.5" cy="200"><title>21
x= 104.5, y= 200</title></circle><circle/><circle class="node" r="9" style="stroke: rgb(0, 0, 0); fill: rgb(0, 0, 255);" cx="200.5" cy="221"><title>23
x= 200.5, y= 221</title></circle><circle/><circle/><circle class="node" r="2.5" style="stroke: rgb(0, 0, 0); fill: rgb(0, 128, 0);" cx="406" cy="208"><title>26
x= 406, y= 208</title></circle><circle class="node" r="7" style="stroke: rgb(0, 0, 0); fill: rgb(0, 0, 255);" cx="468.5" cy="222"><title>27
x= 468.5, y= 222</title></circle><circle/><circle class="node" r="2.5" style="stroke: rgb(0, 0, 0); fill: rgb(255, 0, 0);" cx="605.5" cy="212"><title>29
x= 605.5, y= 212</title></circle><circle class="node" r="8.5" style="stroke: rgb(0, 0, 0); fill: rgb(255, 0, 0);" cx="30" cy="128"><title>30
x= 30, y= 128</title></circle><circle class="node" r="8.5" style="stroke: rgb(0, 0, 0); fill: rgb(0, 0, 255);" cx="95.5" cy="134"><title>31
x= 95.5, y= 134</title></circle><circle class="node" r="3" style="stroke: rgb(0, 0, 0); fill: rgb(0, 0, 255);" cx="155" cy="136"><title>32
x= 155, y= 136</title></circle><circle/><circle class="node" r="6" style="stroke: rgb(0, 0, 0); fill: rgb(0, 0, 255);" cx="305" cy="133"><title>34
x= 305, y= 133</title></circle><circle/><circle class="node" r="9.5" style="stroke: rgb(0, 0, 0); fill: rgb(0, 0, 255);" cx="423" cy="125"><title>36
x= 423, y= 125</title></circle><circle/><circle class="node" r="6.5" style="stroke: rgb(0, 0, 0); fill: rgb(0, 128, 0);" cx="543" cy="125"><title>38
x= 543, y= 125</title></circle><circle/><circle class="node" r="9.5" style="stroke: rgb(0, 0, 0); fill: rgb(255, 0, 0);" cx="6" cy="50"><title>40
x= 6, y= 50</title></circle><circle class="node" r="5" style="stroke: rgb(0, 0, 0); fill: rgb(255, 0, 0);" cx="93.5" cy="25"><title>41
x= 93.5, y= 25</title></circle><circle/><circle class="node" r="7" style="stroke: rgb(0, 0, 0); fill: rgb(0, 0, 255);" cx="238.5" cy="31"><title>43
x= 238.5, y= 31</title></circle><circle class="node" r="8" style="stroke: rgb(0, 0, 0); fill: rgb(0, 128, 0);" cx="276" cy="25"><title>44
x= 276, y= 25</title></circle><circle/><circle/><circle class="node" r="2.5" style="stroke: rgb(0, 0, 0); fill: rgb(255, 0, 0);" cx="465.5" cy="44"><title>47
x= 465.5, y= 44</title></circle><circle class="node" r="2.5" style="stroke: rgb(0, 0, 0); fill: rgb(0, 0, 255);" cx="534" cy="41"><title>48
x= 534, y= 41</title></circle><circle class="node" r="8.5" style="stroke: rgb(0, 0, 0); fill: rgb(0, 128, 0);" cx="605.5" cy="41"><title>49
x= 605.5, y= 41</title></circle><rect class="node" width="14" height="14" style="stroke: rgb(51, 51, 51); fill: rgb(255, 0, 0);" x="20" y="381"><title>0
x= 20, y= 381</title></rect><rect class="node" width="6" height="6" style="stroke: rgb(51, 51, 51); fill: rgb(0, 0, 255);" x="89.5" y="396"><title>1
x= 89.5, y= 396</title></rect><rect class="node" width="18" height="18" style="stroke: rgb(51, 51, 51); fill: rgb(0, 0, 255);" x="141" y="391"><title>2
x= 141, y= 391</title></rect><rect class="node" width="8" height="8" style="stroke: rgb(51, 51, 51); fill: rgb(0, 0, 255);" x="201.5" y="390"><title>3
x= 201.5, y= 390</title></rect><rect/><rect/><rect class="node" width="14" height="14" style="stroke: rgb(51, 51, 51); fill: rgb(0, 0, 255);" x="429" y="410"><title>6
x= 429, y= 410</title></rect><rect class="node" width="14" height="14" style="stroke: rgb(51, 51, 51); fill: rgb(255, 0, 0);" x="616.5" y="246"><title>7
x= 616.5, y= 246</title></rect><rect class="node" width="10" height="10" style="stroke: rgb(51, 51, 51); fill: rgb(0, 0, 255);" x="531" y="400"><title>8
x= 531, y= 400</title></rect><rect class="node" width="19" height="19" style="stroke: rgb(51, 51, 51); fill: rgb(0, 0, 255);" x="565.5" y="347"><title>9
x= 565.5, y= 347</title></rect><rect/><rect/><rect class="node" width="6" height="6" style="stroke: rgb(51, 51, 51); fill: rgb(255, 0, 0);" x="156" y="322"><title>12
x= 156, y= 322</title></rect><rect/><rect/><rect class="node" width="18" height="18" style="stroke: rgb(51, 51, 51); fill: rgb(0, 128, 0);" x="357.5" y="298"><title>15
x= 357.5, y= 298</title></rect><rect/><rect class="node" width="19" height="19" style="stroke: rgb(51, 51, 51); fill: rgb(0, 128, 0);" x="467" y="319.5"><title>17
x= 467, y= 319.5</title></rect><rect/><rect/><rect/><rect/><rect class="node" width="5" height="5" style="stroke: rgb(51, 51, 51); fill: rgb(0, 128, 0);" x="157.5" y="225.5"><title>22
x= 157.5, y= 225.5</title></rect><rect/><rect class="node" width="20" height="20" style="stroke: rgb(51, 51, 51); fill: rgb(0, 128, 0);" x="283" y="212"><title>24
x= 283, y= 212</title></rect><rect class="node" width="6" height="6" style="stroke: rgb(51, 51, 51); fill: rgb(0, 128, 0);" x="349.5" y="232"><title>25
x= 349.5, y= 232</title></rect><rect/><rect/><rect class="node" width="10" height="10" style="stroke: rgb(51, 51, 51); fill: rgb(255, 0, 0);" x="554" y="225"><title>28
x= 554, y= 225</title></rect><rect/><rect/><rect/><rect/><rect class="node" width="20" height="20" style="stroke: rgb(51, 51, 51); fill: rgb(255, 0, 0);" x="204.5" y="123"><title>33
x= 204.5, y= 123</title></rect><rect/><rect class="node" width="12" height="12" style="stroke: rgb(51, 51, 51); fill: rgb(255, 0, 0);" x="357.5" y="134"><title>35
x= 357.5, y= 134</title></rect><rect/><rect class="node" width="5" height="5" style="stroke: rgb(51, 51, 51); fill: rgb(255, 0, 0);" x="464" y="130.5"><title>37
x= 464, y= 130.5</title></rect><rect/><rect class="node" width="6" height="6" style="stroke: rgb(51, 51, 51); fill: rgb(255, 0, 0);" x="530.5" y="173"><title>39
x= 531.5, y= 173</title></rect><rect/><rect/><rect class="node" width="7" height="7" style="stroke: rgb(51, 51, 51); fill: rgb(0, 0, 255);" x="154.5" y="37.5"><title>42
x= 154.5, y= 37.5</title></rect><rect/><rect/><rect class="node" width="15" height="15" style="stroke: rgb(51, 51, 51); fill: rgb(255, 0, 0);" x="352" y="3.5"><title>45
x= 352, y= 3.5</title></rect><rect class="node" width="18" height="18" style="stroke: rgb(51, 51, 51); fill: rgb(0, 0, 255);" x="401" y="26"><title>46
x= 401, y= 26</title></rect><rect/><rect/><rect/><line class="link" x1="284" y1="425" x2="205.5" y2="394" style="stroke: rgb(0, 0, 0); stroke-dasharray: 5px, 5px; stroke-width: 1px;"/><line class="link" x1="284" y1="425" x2="356.5" y2="390" style="stroke: rgb(0, 0, 0); stroke-dasharray: 5px, 5px; stroke-width: 1px;"/><line class="link" x1="356.5" y1="390" x2="436" y2="417" style="stroke: rgb(0, 0, 0); stroke-dasharray: 5px, 5px; stroke-width: 1px;"/><line class="link" x1="356.5" y1="390" x2="366.5" y2="307" style="stroke: rgb(0, 0, 0); stroke-dasharray: 5px, 5px; stroke-width: 1px;"/><line class="link" x1="67.5" y1="320" x2="27" y2="388" style="stroke: rgb(0, 0, 0); stroke-dasharray: 5px, 5px; stroke-width: 1px;"/><line class="link" x1="67.5" y1="320" x2="92.5" y2="399" style="stroke: rgb(0, 0, 0); stroke-dasharray: 5px, 5px; stroke-width: 1px;"/><line class="link" x1="67.5" y1="320" x2="159" y2="325" style="stroke: rgb(0, 0, 0); stroke-dasharray: 5px, 5px; stroke-width: 1px;"/><line class="link" x1="227.5" y1="330" x2="205.5" y2="394" style="stroke: rgb(0, 0, 0); stroke-dasharray: 5px, 5px; stroke-width: 1px;"/><line class="link" x1="227.5" y1="330" x2="159" y2="325" style="stroke: rgb(0, 0, 0); stroke-dasharray: 5px, 5px; stroke-width: 1px;"/><line class="link" x1="227.5" y1="330" x2="286" y2="306" style="stroke: rgb(0, 0, 0); stroke-dasharray: 5px, 5px; stroke-width: 1px;"/><line class="link" x1="286" y1="306" x2="366.5" y2="307" style="stroke: rgb(0, 0, 0); stroke-dasharray: 5px, 5px; stroke-width: 1px;"/><line class="link" x1="286" y1="306" x2="293" y2="222" style="stroke: rgb(0, 0, 0); stroke-dasharray: 5px, 5px; stroke-width: 1px;"/><line class="link" x1="286" y1="306" x2="352.5" y2="235" style="stroke: rgb(0, 0, 0); stroke-dasharray: 5px, 5px; stroke-width: 1px;"/><line class="link" x1="411" y1="300" x2="366.5" y2="307" style="stroke: rgb(0, 0, 0); stroke-dasharray: 5px, 5px; stroke-width: 1px;"/><line class="link" x1="411" y1="300" x2="476.5" y2="329" style="stroke: rgb(0, 0, 0); stroke-dasharray: 5px, 5px; stroke-width: 1px;"/><line class="link" x1="411" y1="300" x2="352.5" y2="235" style="stroke: rgb(0, 0, 0); stroke-dasharray: 5px, 5px; stroke-width: 1px;"/><line class="link" x1="411" y1="300" x2="406" y2="208" style="stroke: rgb(0, 0, 0); stroke-dasharray: 5px, 5px; stroke-width: 1px;"/><line class="link" x1="411" y1="300" x2="468.5" y2="222" style="stroke: rgb(0, 0, 0); stroke-dasharray: 5px, 5px; stroke-width: 1px;"/><line class="link" x1="551" y1="309" x2="536" y2="405" style="stroke: rgb(0, 0, 0); stroke-dasharray: 5px, 5px; stroke-width: 1px;"/><line class="link" x1="551" y1="309" x2="476.5" y2="329" style="stroke: rgb(0, 0, 0); stroke-dasharray: 5px, 5px; stroke-width: 1px;"/><line class="link" x1="551" y1="309" x2="601.5" y2="328" style="stroke: rgb(0, 0, 0); stroke-dasharray: 5px, 5px; stroke-width: 1px;"/><line class="link" x1="551" y1="309" x2="559" y2="230" style="stroke: rgb(0, 0, 0); stroke-dasharray: 5px, 5px; stroke-width: 1px;"/><line class="link" x1="601.5" y1="328" x2="575" y2="356.5" style="stroke: rgb(0, 0, 0); stroke-dasharray: 5px, 5px; stroke-width: 1px;"/><line class="link" x1="33" y1="208" x2="104.5" y2="200" style="stroke: rgb(0, 0, 0); stroke-dasharray: 5px, 5px; stroke-width: 1px;"/><line class="link" x1="33" y1="208" x2="30" y2="128" style="stroke: rgb(0, 0, 0); stroke-dasharray: 5px, 5px; stroke-width: 1px;"/><line class="link" x1="33" y1="208" x2="95.5" y2="134" style="stroke: rgb(0, 0, 0); stroke-dasharray: 5px, 5px; stroke-width: 1px;"/><line class="link" x1="104.5" y1="200" x2="160" y2="228" style="stroke: rgb(0, 0, 0); stroke-dasharray: 5px, 5px; stroke-width: 1px;"/><line class="link" x1="104.5" y1="200" x2="200.5" y2="221" style="stroke: rgb(0, 0, 0); stroke-dasharray: 5px, 5px; stroke-width: 1px;"/><line class="link" x1="104.5" y1="200" x2="95.5" y2="134" style="stroke: rgb(0, 0, 0); stroke-dasharray: 5px, 5px; stroke-width: 1px;"/><line class="link" x1="104.5" y1="200" x2="155" y2="136" style="stroke: rgb(0, 0, 0); stroke-dasharray: 5px, 5px; stroke-width: 1px;"/><line class="link" x1="200.5" y1="221" x2="160" y2="228" style="stroke: rgb(0, 0, 0); stroke-dasharray: 5px, 5px; stroke-width: 1px;"/><line class="link" x1="200.5" y1="221" x2="293" y2="222" style="stroke: rgb(0, 0, 0); stroke-dasharray: 5px, 5px; stroke-width: 1px;"/><line class="link" x1="200.5" y1="221" x2="155" y2="136" style="stroke: rgb(0, 0, 0); stroke-dasharray: 5px, 5px; stroke-width: 1px;"/><line class="link" x1="200.5" y1="221" x2="214.5" y2="133" style="stroke: rgb(0, 0, 0); stroke-dasharray: 5px, 5px; stroke-width: 1px;"/><line class="link" x1="406" y1="208" x2="352.5" y2="235" style="stroke: rgb(0, 0, 0); stroke-dasharray: 5px, 5px; stroke-width: 1px;"/><line class="link" x1="406" y1="208" x2="468.5" y2="222" style="stroke: rgb(0, 0, 0); stroke-dasharray: 5px, 5px; stroke-width: 1px;"/><line class="link" x1="406" y1="208" x2="363.5" y2="140" style="stroke: rgb(0, 0, 0); stroke-dasharray: 5px, 5px; stroke-width: 1px;"/><line class="link" x1="406" y1="208" x2="423" y2="125" style="stroke: rgb(0, 0, 0); stroke-dasharray: 5px, 5px; stroke-width: 1px;"/><line class="link" x1="406" y1="208" x2="466.5" y2="133" style="stroke: rgb(0, 0, 0); stroke-dasharray: 5px, 5px; stroke-width: 1px;"/><line class="link" x1="468.5" y1="222" x2="559" y2="230" style="stroke: rgb(0, 0, 0); stroke-dasharray: 5px, 5px; stroke-width: 1px;"/><line class="link" x1="468.5" y1="222" x2="466.5" y2="133" style="stroke: rgb(0, 0, 0); stroke-dasharray: 5px, 5px; stroke-width: 1px;"/><line class="link" x1="605.5" y1="212" x2="559" y2="230" style="stroke: rgb(0, 0, 0); stroke-dasharray: 5px, 5px; stroke-width: 1px;"/><line class="link" x1="30" y1="128" x2="95.5" y2="134" style="stroke: rgb(0, 0, 0); stroke-dasharray: 5px, 5px; stroke-width: 1px;"/><line class="link" x1="95.5" y1="134" x2="155" y2="136" style="stroke: rgb(0, 0, 0); stroke-dasharray: 5px, 5px; stroke-width: 1px;"/><line class="link" x1="155" y1="136" x2="160" y2="228" style="stroke: rgb(0, 0, 0); stroke-dasharray: 5px, 5px; stroke-width: 1px;"/><line class="link" x1="155" y1="136" x2="214.5" y2="133" style="stroke: rgb(0, 0, 0); stroke-dasharray: 5px, 5px; stroke-width: 1px;"/><line class="link" x1="155" y1="136" x2="158" y2="41" style="stroke: rgb(0, 0, 0); stroke-dasharray: 5px, 5px; stroke-width: 1px;"/><line class="link" x1="305" y1="133" x2="293" y2="222" style="stroke: rgb(0, 0, 0); stroke-dasharray: 5px, 5px; stroke-width: 1px;"/><line class="link" x1="305" y1="133" x2="214.5" y2="133" style="stroke: rgb(0, 0, 0); stroke-dasharray: 5px, 5px; stroke-width: 1px;"/><line class="link" x1="305" y1="133" x2="363.5" y2="140" style="stroke: rgb(0, 0, 0); stroke-dasharray: 5px, 5px; stroke-width: 1px;"/><line class="link" x1="423" y1="125" x2="363.5" y2="140" style="stroke: rgb(0, 0, 0); stroke-dasharray: 5px, 5px; stroke-width: 1px;"/><line class="link" x1="423" y1="125" x2="466.5" y2="133" style="stroke: rgb(0, 0, 0); stroke-dasharray: 5px, 5px; stroke-width: 1px;"/><line class="link" x1="423" y1="125" x2="410" y2="35" style="stroke: rgb(0, 0, 0); stroke-dasharray: 5px, 5px; stroke-width: 1px;"/><line class="link" x1="423" y1="125" x2="465.5" y2="44" style="stroke: rgb(0, 0, 0); stroke-dasharray: 5px, 5px; stroke-width: 1px;"/><line class="link" x1="543" y1="125" x2="466.5" y2="133" style="stroke: rgb(0, 0, 0); stroke-dasharray: 5px, 5px; stroke-width: 1px;"/><line class="link" x1="543" y1="125" x2="533.5" y2="176" style="stroke: rgb(0, 0, 0); stroke-dasharray: 5px, 5px; stroke-width: 1px;"/><line class="link" x1="543" y1="125" x2="534" y2="41" style="stroke: rgb(0, 0, 0); stroke-dasharray: 5px, 5px; stroke-width: 1px;"/><line class="link" x1="93.5" y1="25" x2="158" y2="41" style="stroke: rgb(0, 0, 0); stroke-dasharray: 5px, 5px; stroke-width: 1px;"/><line class="link" x1="238.5" y1="31" x2="158" y2="41" style="stroke: rgb(0, 0, 0); stroke-dasharray: 5px, 5px; stroke-width: 1px;"/><line class="link" x1="238.5" y1="31" x2="276" y2="25" style="stroke: rgb(0, 0, 0); stroke-dasharray: 5px, 5px; stroke-width: 1px;"/><line class="link" x1="276" y1="25" x2="359.5" y2="11" style="stroke: rgb(0, 0, 0); stroke-dasharray: 5px, 5px; stroke-width: 1px;"/><line class="link" x1="465.5" y1="44" x2="466.5" y2="133" style="stroke: rgb(0, 0, 0); stroke-dasharray: 5px, 5px; stroke-width: 1px;"/><line class="link" x1="465.5" y1="44" x2="410" y2="35" style="stroke: rgb(0, 0, 0); stroke-dasharray: 5px, 5px; stroke-width: 1px;"/><line class="link" x1="465.5" y1="44" x2="534" y2="41" style="stroke: rgb(0, 0, 0); stroke-dasharray: 5px, 5px; stroke-width: 1px;"/><line class="link" x1="534" y1="41" x2="605.5" y2="41" style="stroke: rgb(0, 0, 0); stroke-dasharray: 5px, 5px; stroke-width: 1px;"/><line class="link" x1="27" y1="388" x2="92.5" y2="399" style="stroke: rgb(0, 0, 0); stroke-dasharray: 5px, 5px; stroke-width: 1px;"/><line class="link" x1="92.5" y1="399" x2="150" y2="400" style="stroke: rgb(0, 0, 0); stroke-dasharray: 5px, 5px; stroke-width: 1px;"/><line class="link" x1="92.5" y1="399" x2="159" y2="325" style="stroke: rgb(0, 0, 0); stroke-dasharray: 5px, 5px; stroke-width: 1px;"/><line class="link" x1="150" y1="400" x2="205.5" y2="394" style="stroke: rgb(0, 0, 0); stroke-dasharray: 5px, 5px; stroke-width: 1px;"/><line class="link" x1="150" y1="400" x2="159" y2="325" style="stroke: rgb(0, 0, 0); stroke-dasharray: 5px, 5px; stroke-width: 1px;"/><line class="link" x1="205.5" y1="394" x2="159" y2="325" style="stroke: rgb(0, 0, 0); stroke-dasharray: 5px, 5px; stroke-width: 1px;"/><line class="link" x1="436" y1="417" x2="476.5" y2="329" style="stroke: rgb(0, 0, 0); stroke-dasharray: 5px, 5px; stroke-width: 1px;"/><line class="link" x1="536" y1="405" x2="575" y2="356.5" style="stroke: rgb(0, 0, 0); stroke-dasharray: 5px, 5px; stroke-width: 1px;"/><line class="link" x1="536" y1="405" x2="476.5" y2="329" style="stroke: rgb(0, 0, 0); stroke-dasharray: 5px, 5px; stroke-width: 1px;"/><line class="link" x1="159" y1="325" x2="160" y2="228" style="stroke: rgb(0, 0, 0); stroke-dasharray: 5px, 5px; stroke-width: 1px;"/><line class="link" x1="366.5" y1="307" x2="352.5" y2="235" style="stroke: rgb(0, 0, 0); stroke-dasharray: 5px, 5px; stroke-width: 1px;"/><line class="link" x1="293" y1="222" x2="352.5" y2="235" style="stroke: rgb(0, 0, 0); stroke-dasharray: 5px, 5px; stroke-width: 1px;"/><line class="link" x1="352.5" y1="235" x2="363.5" y2="140" style="stroke: rgb(0, 0, 0); stroke-dasharray: 5px, 5px; stroke-width: 1px;"/><line class="link" x1="359.5" y1="11" x2="410" y2="35" style="stroke: rgb(0, 0, 0); stroke-dasharray: 5px, 5px; stroke-width: 1px;"/><line class="link" x1="6" y1="50" x2="30" y2="128" style="stroke: rgb(0, 0, 0); stroke-dasharray: 5px, 5px; stroke-width: 1px;"/><line class="link" x1="6" y1="50" x2="93.5" y2="25" style="stroke: rgb(0, 0, 0); stroke-dasharray: 5px, 5px; stroke-width: 1px;"/><line class="link" x1="6" y1="233" x2="33" y2="208" style="stroke: rgb(0, 0, 0); stroke-dasharray: 5px, 5px; stroke-width: 1px;"/><line class="link" x1="623.5" y1="253" x2="601.5" y2="328" style="stroke: rgb(0, 0, 0); stroke-dasharray: 5px, 5px; stroke-width: 1px;"/><line class="link" x1="623.5" y1="253" x2="551" y2="309" style="stroke: rgb(0, 0, 0); stroke-dasharray: 5px, 5px; stroke-width: 1px;"/><line class="link" x1="623.5" y1="253" x2="605.5" y2="212" style="stroke: rgb(0, 0, 0); stroke-dasharray: 5px, 5px; stroke-width: 1px;"/><line class="link" x1="623.5" y1="253" x2="559" y2="230" style="stroke: rgb(0, 0, 0); stroke-dasharray: 5px, 5px; stroke-width: 1px;"/><line class="link" x1="575" y1="356.5" x2="551" y2="309" style="stroke: rgb(0, 0, 0); stroke-dasharray: 5px, 5px; stroke-width: 1px;"/><line class="link" x1="533.5" y1="176" x2="605.5" y2="212" style="stroke: rgb(0, 0, 0); stroke-dasharray: 5px, 5px; stroke-width: 1px;"/><line class="link" x1="533.5" y1="176" x2="559" y2="230" style="stroke: rgb(0, 0, 0); stroke-dasharray: 5px, 5px; stroke-width: 1px;"/><line class="link" x1="533.5" y1="176" x2="466.5" y2="133" style="stroke: rgb(0, 0, 0); stroke-dasharray: 5px, 5px; stroke-width: 1px;"/><line class="link" x1="533.5" y1="176" x2="468.5" y2="222" style="stroke: rgb(0, 0, 0); stroke-dasharray: 5px, 5px; stroke-width: 1px;"/></svg>